#N canvas 0 1 1246 819 10;
#N canvas 330 116 990 634 get-input-from-arduino 0;
#X floatatom 152 496 5 0 0 3 a0 - -;
#X floatatom 198 496 5 0 0 3 a1 - -;
#X floatatom 244 496 5 0 0 3 a2 - -;
#X floatatom 290 496 5 0 0 3 a3 - -;
#X floatatom 336 496 5 0 0 3 a4 - -;
#X floatatom 382 496 5 0 0 3 a5 - -;
#X floatatom 428 496 5 0 0 3 a6 - -;
#X floatatom 474 496 5 0 0 3 a7 - -;
#X obj 251 439 route 0 1 2 3 4 5 6 7;
#X text 139 439 analog inputs:;
#X obj 251 374 route analog digital string sysex;
#X msg -29 296 analogIns 7 1;
#N canvas 590 274 610 460 serin 0;
#X obj 59 337 outlet;
#X obj 59 266 trigger bang anything;
#X obj 201 286 list;
#X obj 60 61 tgl 15 0 junk_to_hide_inlet ARDUINO_TEST_RESET 0 5 9 1
12 -262130 -1 -1 1 1;
#X obj 75 61 tgl 15 0 junk_to_hide_inlet ARDUINO_TEST_RESET 1 5 9 1
12 -262130 -1 -1 1 1;
#X obj 90 61 tgl 15 0 junk_to_hide_inlet ARDUINO_TEST_RESET 2 5 9 1
12 -262130 -1 -1 1 1;
#X obj 105 61 tgl 15 0 junk_to_hide_inlet ARDUINO_TEST_RESET 3 5 9
1 12 -262130 -1 -1 1 1;
#X obj 120 61 tgl 15 0 junk_to_hide_inlet ARDUINO_TEST_RESET 4 5 9
1 12 -262130 -1 -1 1 1;
#X obj 135 61 tgl 15 0 junk_to_hide_inlet ARDUINO_TEST_RESET 5 5 9
1 12 -262130 -1 -1 1 1;
#X obj 150 61 tgl 15 0 junk_to_hide_inlet ARDUINO_TEST_RESET 6 5 9
1 12 -262130 -1 -1 1 1;
#X obj 165 61 tgl 15 0 junk_to_hide_inlet ARDUINO_TEST_RESET 7 5 9
1 12 -262130 -1 -1 1 1;
#X msg 59 210 analogIns \$1 \$2;
#X msg 35 106 0 \$1;
#X msg 70 106 1 \$1;
#X msg 105 106 2 \$1;
#X msg 140 106 3 \$1;
#X msg 175 106 4 \$1;
#X msg 210 106 5 \$1;
#X msg 245 106 6 \$1;
#X msg 280 106 7 \$1;
#X msg 202 307 set \$1 \$2 \$3;
#X obj -25 25 inlet;
#X obj 16 25 inlet;
#X obj 56 25 inlet;
#X obj 97 25 inlet;
#X obj 137 25 inlet;
#X obj 178 25 inlet;
#X obj 218 25 inlet;
#X obj 259 25 inlet;
#X connect 1 0 0 0;
#X connect 1 1 2 0;
#X connect 2 0 20 0;
#X connect 3 0 12 0;
#X connect 4 0 13 0;
#X connect 5 0 14 0;
#X connect 6 0 15 0;
#X connect 7 0 16 0;
#X connect 8 0 17 0;
#X connect 9 0 18 0;
#X connect 10 0 19 0;
#X connect 11 0 1 0;
#X connect 12 0 11 0;
#X connect 13 0 11 0;
#X connect 14 0 11 0;
#X connect 15 0 11 0;
#X connect 16 0 11 0;
#X connect 17 0 11 0;
#X connect 18 0 11 0;
#X connect 19 0 11 0;
#X connect 20 0 0 0;
#X connect 21 0 3 0;
#X connect 22 0 4 0;
#X connect 23 0 5 0;
#X connect 24 0 6 0;
#X connect 25 0 7 0;
#X connect 26 0 8 0;
#X connect 27 0 9 0;
#X connect 28 0 10 0;
#X coords 0 -1 1 1 120 16 1 60 60;
#X restore -34 254 pd serin;
#X obj -55 194 loadbang;
#X obj -55 216 delay 4000;
#X obj 87 535 outlet;
#N canvas 941 51 499 396 slow 0;
#X obj 6 7 inlet;
#X obj 6 50 outlet;
#X obj 54 50 inlet;
#X obj 54 93 outlet;
#X obj 103 93 inlet;
#X obj 103 136 outlet;
#X obj 151 136 inlet;
#X obj 151 179 outlet;
#X obj 200 179 inlet;
#X obj 200 222 outlet;
#X obj 247 222 inlet;
#X obj 247 265 outlet;
#X obj 295 265 inlet;
#X obj 295 308 outlet;
#X obj 345 308 inlet;
#X obj 345 351 outlet;
#X obj 125 366 receive ARDUINO_TEST_RESET;
#X obj 151 157 mapping/resample 50;
#X obj 200 200 mapping/resample 50;
#X obj 247 243 mapping/resample 50;
#X obj 295 286 mapping/resample 50;
#X obj 345 329 mapping/resample 50;
#X obj 6 28 mapping/resample 20;
#X obj 103 114 mapping/resample 20;
#X obj 54 71 mapping/resample 10;
#X connect 0 0 22 0;
#X connect 2 0 24 0;
#X connect 4 0 23 0;
#X connect 6 0 17 0;
#X connect 8 0 18 0;
#X connect 10 0 19 0;
#X connect 12 0 20 0;
#X connect 14 0 21 0;
#X connect 16 0 17 0;
#X connect 16 0 18 0;
#X connect 16 0 19 0;
#X connect 16 0 20 0;
#X connect 16 0 21 0;
#X connect 16 0 22 0;
#X connect 16 0 23 0;
#X connect 16 0 24 0;
#X connect 17 0 7 0;
#X connect 18 0 9 0;
#X connect 19 0 11 0;
#X connect 20 0 13 0;
#X connect 21 0 15 0;
#X connect 22 0 1 0;
#X connect 23 0 5 0;
#X connect 24 0 3 0;
#X restore 175 470 pd slow down events to avoid loading GUI too much
;
#X text 13 211 WAIT FOUR SECONDS;
#X text 12 221 BEFORE SENDING DATA TO ARDUINO;
#X text 39 281 which analogIns to enable;
#X obj 153 533 outlet;
#X obj 220 531 outlet;
#X obj 276 533 outlet;
#X obj 331 533 outlet;
#X obj 397 531 outlet;
#X obj 464 529 outlet;
#X obj 520 531 outlet;
#X msg -56 322 analogIns 6 1;
#X msg -58 344 analogIns 5 1;
#X msg -58 371 analogIns 4 1;
#X msg -58 393 analogIns 3 1;
#X msg -59 418 analogIns 2 1;
#X msg -59 445 analogIns 1 1;
#X msg -59 467 analogIns 0 1;
#X obj 251 342 arduino 4;
#X connect 0 0 15 0;
#X connect 1 0 20 0;
#X connect 2 0 21 0;
#X connect 3 0 22 0;
#X connect 4 0 23 0;
#X connect 5 0 24 0;
#X connect 6 0 25 0;
#X connect 7 0 26 0;
#X connect 8 0 16 0;
#X connect 8 1 16 1;
#X connect 8 2 16 2;
#X connect 8 3 16 3;
#X connect 8 4 16 4;
#X connect 8 5 16 5;
#X connect 8 6 16 6;
#X connect 8 7 16 7;
#X connect 10 0 8 0;
#X connect 11 0 34 0;
#X connect 13 0 14 0;
#X connect 14 0 12 2;
#X connect 14 0 12 0;
#X connect 14 0 12 3;
#X connect 14 0 12 1;
#X connect 14 0 12 4;
#X connect 14 0 12 5;
#X connect 14 0 12 6;
#X connect 14 0 12 7;
#X connect 14 0 27 0;
#X connect 14 0 28 0;
#X connect 14 0 29 0;
#X connect 14 0 30 0;
#X connect 14 0 31 0;
#X connect 14 0 32 0;
#X connect 14 0 33 0;
#X connect 14 0 11 0;
#X connect 16 0 0 0;
#X connect 16 1 1 0;
#X connect 16 2 2 0;
#X connect 16 3 3 0;
#X connect 16 4 4 0;
#X connect 16 5 5 0;
#X connect 16 6 6 0;
#X connect 16 7 7 0;
#X connect 27 0 34 0;
#X connect 28 0 34 0;
#X connect 29 0 34 0;
#X connect 30 0 34 0;
#X connect 31 0 34 0;
#X connect 32 0 34 0;
#X connect 33 0 34 0;
#X connect 34 0 10 0;
#X restore -289 -166 pd get-input-from-arduino;
#X text 89 -138 dsp ON/OFF;
#X floatatom 73 -93 5 0 0 0 - - -;
#X text 72 -77 % cpu;
#X obj 73 -115 dsp;
#X obj 73 -138 tgl 15 0 empty empty empty 8 -8 0 10 -262144 -1 -1 1
1;
#X obj 66 -56 loadbang;
#X obj 73 -161 delay 8000;
#X obj 113 666 dac~;
#X obj -251 -16 expr pow($f5/$f4 \, ($f1-$f2)/($f3-$f2)) * $f4;
#X msg -186 -35 0;
#X msg -56 -35 110;
#X msg 10 -36 1760;
#X obj -267 288 expr pow($f5/$f4 \, ($f1-$f2)/($f3-$f2)) * $f4;
#X msg -6 268 1;
#X msg -72 269 0.1;
#X floatatom -188 5 5 0 0 0 - - -;
#X obj -251 25 line~;
#X obj -267 364 line~;
#X text -225 306 Amplitude Ctrl;
#X text -144 5 Freq Ctrl;
#X msg -121 -35 0.9;
#X msg -137 269 0.8;
#X obj 94 308 phasor~;
#X obj 184 326 osc~;
#X obj 185 370 *~;
#X obj 161 404 +~;
#X obj 122 458 cos~;
#X obj 183 300 +~;
#X obj 94 422 *~;
#X obj -253 75 expr pow($f5/$f4 \, ($f1-$f2)/($f3-$f2)) * $f4;
#X msg -188 56 0;
#X msg 8 55 1;
#X msg -58 56 0.1;
#X obj -253 132 pack 0 20;
#X obj -253 151 line~;
#X obj 93 363 *~ 2;
#X obj 94 386 -~ 1;
#X obj 56 361 *~;
#X obj 291 245 *;
#X text -211 93 Pressure Strip;
#X obj 113 577 *~;
#X obj 114 608 *~;
#X obj -252 191 expr pow($f5/$f4 \, ($f1-$f2)/($f3-$f2)) * $f4;
#X msg -187 172 0;
#X obj -252 210 - 0.1;
#X msg -57 172 0.1;
#X obj -252 249 line~;
#X text -210 209 Volume Ctrl;
#X obj -252 230 pack 0 50;
#X obj 210 80 pack 0 50;
#X obj 210 99 line;
#X msg -122 172 1;
#X msg 9 171 1.1;
#X obj 144 80 pack 0 50;
#X obj 144 99 line;
#X obj 78 81 pack 0 50;
#X obj 78 100 line;
#X floatatom 175 99 5 0 0 0 - - -;
#X obj -19 -98 int;
#X obj -19 -80 mtof;
#X floatatom 10 -80 5 0 0 0 - - -;
#X obj -19 -62 * 16;
#X floatatom 10 -62 5 0 0 0 - - -;
#X msg -202 269 0;
#X floatatom -187 231 5 0 0 0 - - -;
#X obj -267 326 clip 0 1;
#X obj -267 307 - 0.11;
#X obj -253 94 - 0.11;
#X obj -228 -146 - 1;
#X obj -228 -127 * -1;
#X obj -198 -145 - 1;
#X obj -198 -126 * -1;
#X obj -168 -145 - 1;
#X obj -168 -126 * -1;
#X obj -137 -144 - 1;
#X obj -137 -125 * -1;
#X obj -106 -144 - 1;
#X obj -106 -125 * -1;
#X floatatom 240 99 5 0 0 0 - - -;
#X floatatom 109 100 5 0 0 0 - - -;
#X text 218 326 modulator;
#X text 190 431 carrier;
#X text 218 369 modulation amount;
#X text 196 404 add modulator to carrier freq;
#X obj 199 255 * 100;
#X obj 277 339 line~;
#X obj 277 316 pack 0 50;
#X obj 277 294 * 2;
#X obj 277 271 *;
#X obj 38 336 +~;
#X obj 53 312 / 4;
#X floatatom -183 355 5 0 0 0 - - -;
#X obj 386 270 phasor~;
#X obj 386 319 *~;
#X obj 442 273 /~ 2;
#X obj 442 293 *~ -1;
#X obj 442 313 +~ 1;
#X obj 411 336 *~;
#X obj 411 358 *~ -1;
#X obj 436 383 +~;
#X obj 423 411 min~;
#X obj 424 438 *~;
#X obj 424 460 *~ 2;
#X obj 425 481 +~ 1;
#X obj 462 383 expr~ pow($v1*($v1-1) \, -1);
#X obj 442 253 +~ 1;
#X obj -253 113 clip 0 0.99;
#X msg -123 56 0.8;
#X obj 441 185 pack 0 50;
#X obj 441 204 line~;
#X obj 443 231 clip~ 0 0.99;
#X obj 441 161 * 1.4;
#X obj 467 133 * 2;
#X obj 273 516 *~;
#X obj 162 516 *~;
#X obj 181 487 * -1;
#X obj 181 465 - 1;
#X obj 274 538 *~ 1;
#X obj 123 546 *~ 0.5;
#X obj -267 345 pack 0 15;
#X obj -251 5 pack 0 50;
#X obj -19 -134 * 12;
#X obj -19 -116 + 33;
#X obj 126 637 freeverb~;
#X connect 0 0 9 0;
#X connect 0 1 13 0;
#X connect 0 2 30 0;
#X connect 0 2 112 0;
#X connect 0 3 69 0;
#X connect 0 4 71 0;
#X connect 0 5 73 0;
#X connect 0 6 75 0;
#X connect 0 7 77 0;
#X connect 4 0 2 0;
#X connect 5 0 4 0;
#X connect 6 0 7 0;
#X connect 6 0 10 0;
#X connect 6 0 21 0;
#X connect 6 0 11 0;
#X connect 6 0 12 0;
#X connect 6 0 64 0;
#X connect 6 0 22 0;
#X connect 6 0 15 0;
#X connect 6 0 14 0;
#X connect 6 0 31 0;
#X connect 6 0 108 0;
#X connect 6 0 33 0;
#X connect 6 0 32 0;
#X connect 6 0 44 0;
#X connect 6 0 52 0;
#X connect 6 0 46 0;
#X connect 6 0 53 0;
#X connect 7 0 5 0;
#X connect 9 0 16 0;
#X connect 9 0 121 0;
#X connect 10 0 9 1;
#X connect 11 0 9 3;
#X connect 12 0 9 4;
#X connect 13 0 67 0;
#X connect 13 0 92 0;
#X connect 14 0 13 4;
#X connect 15 0 13 3;
#X connect 17 0 23 0;
#X connect 17 0 28 0;
#X connect 17 0 93 0;
#X connect 18 0 41 1;
#X connect 21 0 9 2;
#X connect 22 0 13 2;
#X connect 23 0 26 0;
#X connect 23 0 36 0;
#X connect 24 0 25 0;
#X connect 25 0 26 1;
#X connect 26 0 27 0;
#X connect 27 0 115 0;
#X connect 28 0 24 0;
#X connect 29 0 27 0;
#X connect 30 0 39 0;
#X connect 30 0 68 0;
#X connect 31 0 30 1;
#X connect 32 0 30 4;
#X connect 33 0 30 3;
#X connect 34 0 35 0;
#X connect 35 0 90 0;
#X connect 36 0 37 0;
#X connect 37 0 29 0;
#X connect 38 0 29 1;
#X connect 39 0 89 1;
#X connect 41 0 42 0;
#X connect 42 0 124 1;
#X connect 42 0 124 2;
#X connect 43 0 45 0;
#X connect 44 0 43 1;
#X connect 45 0 49 0;
#X connect 45 0 65 0;
#X connect 46 0 43 3;
#X connect 47 0 42 1;
#X connect 49 0 47 0;
#X connect 50 0 51 0;
#X connect 51 0 79 0;
#X connect 51 0 89 0;
#X connect 51 0 39 1;
#X connect 51 0 85 0;
#X connect 52 0 43 2;
#X connect 53 0 43 4;
#X connect 54 0 55 0;
#X connect 55 0 58 0;
#X connect 55 0 117 0;
#X connect 55 0 114 1;
#X connect 56 0 57 0;
#X connect 57 0 80 0;
#X connect 57 0 91 0;
#X connect 57 0 38 1;
#X connect 59 0 60 0;
#X connect 60 0 61 0;
#X connect 60 0 62 0;
#X connect 60 0 9 3;
#X connect 62 0 63 0;
#X connect 62 0 9 4;
#X connect 64 0 13 1;
#X connect 66 0 120 0;
#X connect 67 0 66 0;
#X connect 68 0 107 0;
#X connect 69 0 70 0;
#X connect 70 0 43 0;
#X connect 71 0 72 0;
#X connect 72 0 56 0;
#X connect 72 0 113 0;
#X connect 73 0 74 0;
#X connect 74 0 54 0;
#X connect 75 0 76 0;
#X connect 76 0 50 0;
#X connect 77 0 78 0;
#X connect 78 0 122 0;
#X connect 85 0 28 1;
#X connect 86 0 25 1;
#X connect 87 0 86 0;
#X connect 88 0 87 0;
#X connect 89 0 88 0;
#X connect 90 0 38 0;
#X connect 91 0 90 1;
#X connect 93 0 98 0;
#X connect 93 0 94 0;
#X connect 94 0 101 0;
#X connect 95 0 96 0;
#X connect 95 0 94 1;
#X connect 95 0 105 0;
#X connect 96 0 97 0;
#X connect 97 0 98 1;
#X connect 97 0 100 1;
#X connect 98 0 99 0;
#X connect 99 0 100 0;
#X connect 100 0 101 1;
#X connect 101 0 102 0;
#X connect 102 0 103 0;
#X connect 103 0 104 0;
#X connect 104 0 114 0;
#X connect 105 0 102 1;
#X connect 106 0 95 0;
#X connect 107 0 34 0;
#X connect 108 0 30 2;
#X connect 109 0 110 0;
#X connect 110 0 111 0;
#X connect 111 0 106 0;
#X connect 112 0 109 0;
#X connect 113 0 112 1;
#X connect 114 0 118 0;
#X connect 115 0 119 0;
#X connect 116 0 115 1;
#X connect 117 0 116 0;
#X connect 118 0 41 0;
#X connect 119 0 41 0;
#X connect 120 0 18 0;
#X connect 121 0 17 0;
#X connect 122 0 123 0;
#X connect 123 0 59 0;
#X connect 124 1 8 0;
#X connect 124 2 8 1;
