#N canvas 671 0 768 645 10;
#N canvas 330 116 990 634 get-input-from-arduino 0;
#X floatatom 152 496 5 0 0 3 a0 - -;
#X floatatom 198 496 5 0 0 3 a1 - -;
#X floatatom 244 496 5 0 0 3 a2 - -;
#X floatatom 290 496 5 0 0 3 a3 - -;
#X floatatom 336 496 5 0 0 3 a4 - -;
#X floatatom 382 496 5 0 0 3 a5 - -;
#X floatatom 428 496 5 0 0 3 a6 - -;
#X floatatom 474 496 5 0 0 3 a7 - -;
#X obj 251 439 route 0 1 2 3 4 5 6 7;
#X text 139 439 analog inputs:;
#X obj 251 374 route analog digital string sysex;
#X msg -29 296 analogIns 7 1;
#N canvas 590 274 610 460 serin 0;
#X obj 59 337 outlet;
#X obj 59 266 trigger bang anything;
#X obj 201 286 list;
#X obj 60 61 tgl 15 0 junk_to_hide_inlet ARDUINO_TEST_RESET 0 5 9 1
12 -262130 -1 -1 1 1;
#X obj 75 61 tgl 15 0 junk_to_hide_inlet ARDUINO_TEST_RESET 1 5 9 1
12 -262130 -1 -1 1 1;
#X obj 90 61 tgl 15 0 junk_to_hide_inlet ARDUINO_TEST_RESET 2 5 9 1
12 -262130 -1 -1 1 1;
#X obj 105 61 tgl 15 0 junk_to_hide_inlet ARDUINO_TEST_RESET 3 5 9
1 12 -262130 -1 -1 1 1;
#X obj 120 61 tgl 15 0 junk_to_hide_inlet ARDUINO_TEST_RESET 4 5 9
1 12 -262130 -1 -1 1 1;
#X obj 135 61 tgl 15 0 junk_to_hide_inlet ARDUINO_TEST_RESET 5 5 9
1 12 -262130 -1 -1 1 1;
#X obj 150 61 tgl 15 0 junk_to_hide_inlet ARDUINO_TEST_RESET 6 5 9
1 12 -262130 -1 -1 1 1;
#X obj 165 61 tgl 15 0 junk_to_hide_inlet ARDUINO_TEST_RESET 7 5 9
1 12 -262130 -1 -1 1 1;
#X msg 59 210 analogIns \$1 \$2;
#X msg 35 106 0 \$1;
#X msg 70 106 1 \$1;
#X msg 105 106 2 \$1;
#X msg 140 106 3 \$1;
#X msg 175 106 4 \$1;
#X msg 210 106 5 \$1;
#X msg 245 106 6 \$1;
#X msg 280 106 7 \$1;
#X msg 202 307 set \$1 \$2 \$3;
#X obj -25 25 inlet;
#X obj 16 25 inlet;
#X obj 56 25 inlet;
#X obj 97 25 inlet;
#X obj 137 25 inlet;
#X obj 178 25 inlet;
#X obj 218 25 inlet;
#X obj 259 25 inlet;
#X connect 1 0 0 0;
#X connect 1 1 2 0;
#X connect 2 0 20 0;
#X connect 3 0 12 0;
#X connect 4 0 13 0;
#X connect 5 0 14 0;
#X connect 6 0 15 0;
#X connect 7 0 16 0;
#X connect 8 0 17 0;
#X connect 9 0 18 0;
#X connect 10 0 19 0;
#X connect 11 0 1 0;
#X connect 12 0 11 0;
#X connect 13 0 11 0;
#X connect 14 0 11 0;
#X connect 15 0 11 0;
#X connect 16 0 11 0;
#X connect 17 0 11 0;
#X connect 18 0 11 0;
#X connect 19 0 11 0;
#X connect 20 0 0 0;
#X connect 21 0 3 0;
#X connect 22 0 4 0;
#X connect 23 0 5 0;
#X connect 24 0 6 0;
#X connect 25 0 7 0;
#X connect 26 0 8 0;
#X connect 27 0 9 0;
#X connect 28 0 10 0;
#X coords 0 -1 1 1 120 16 1 60 60;
#X restore -34 254 pd serin;
#X obj -55 194 loadbang;
#X obj 87 535 outlet;
#N canvas 941 51 499 396 slow 0;
#X obj 6 7 inlet;
#X obj 6 50 outlet;
#X obj 54 50 inlet;
#X obj 54 93 outlet;
#X obj 103 93 inlet;
#X obj 103 136 outlet;
#X obj 151 136 inlet;
#X obj 151 179 outlet;
#X obj 200 179 inlet;
#X obj 200 222 outlet;
#X obj 247 222 inlet;
#X obj 247 265 outlet;
#X obj 295 265 inlet;
#X obj 295 308 outlet;
#X obj 345 308 inlet;
#X obj 345 351 outlet;
#X obj 125 366 receive ARDUINO_TEST_RESET;
#X obj 151 157 mapping/resample 50;
#X obj 200 200 mapping/resample 50;
#X obj 247 243 mapping/resample 50;
#X obj 295 286 mapping/resample 50;
#X obj 345 329 mapping/resample 50;
#X obj 6 28 mapping/resample 20;
#X obj 103 114 mapping/resample 20;
#X obj 54 71 mapping/resample 10;
#X connect 0 0 22 0;
#X connect 2 0 24 0;
#X connect 4 0 23 0;
#X connect 6 0 17 0;
#X connect 8 0 18 0;
#X connect 10 0 19 0;
#X connect 12 0 20 0;
#X connect 14 0 21 0;
#X connect 16 0 17 0;
#X connect 16 0 18 0;
#X connect 16 0 19 0;
#X connect 16 0 20 0;
#X connect 16 0 21 0;
#X connect 16 0 22 0;
#X connect 16 0 23 0;
#X connect 16 0 24 0;
#X connect 17 0 7 0;
#X connect 18 0 9 0;
#X connect 19 0 11 0;
#X connect 20 0 13 0;
#X connect 21 0 15 0;
#X connect 22 0 1 0;
#X connect 23 0 5 0;
#X connect 24 0 3 0;
#X restore 175 470 pd slow down events to avoid loading GUI too much
;
#X text 13 211 WAIT FOUR SECONDS;
#X text 12 221 BEFORE SENDING DATA TO ARDUINO;
#X text 39 281 which analogIns to enable;
#X obj 153 533 outlet;
#X obj 220 531 outlet;
#X obj 276 533 outlet;
#X obj 331 533 outlet;
#X obj 397 531 outlet;
#X obj 464 529 outlet;
#X obj 520 531 outlet;
#X msg -56 322 analogIns 6 1;
#X msg -58 344 analogIns 5 1;
#X msg -58 371 analogIns 4 1;
#X msg -58 393 analogIns 3 1;
#X msg -59 418 analogIns 2 1;
#X msg -59 445 analogIns 1 1;
#X msg -59 467 analogIns 0 1;
#X obj 251 342 arduino 4;
#X obj -55 216 delay 3000;
#X connect 0 0 14 0;
#X connect 1 0 19 0;
#X connect 2 0 20 0;
#X connect 3 0 21 0;
#X connect 4 0 22 0;
#X connect 5 0 23 0;
#X connect 6 0 24 0;
#X connect 7 0 25 0;
#X connect 8 0 15 0;
#X connect 8 1 15 1;
#X connect 8 2 15 2;
#X connect 8 3 15 3;
#X connect 8 4 15 4;
#X connect 8 5 15 5;
#X connect 8 6 15 6;
#X connect 8 7 15 7;
#X connect 10 0 8 0;
#X connect 11 0 33 0;
#X connect 13 0 34 0;
#X connect 15 0 0 0;
#X connect 15 1 1 0;
#X connect 15 2 2 0;
#X connect 15 3 3 0;
#X connect 15 4 4 0;
#X connect 15 5 5 0;
#X connect 15 6 6 0;
#X connect 15 7 7 0;
#X connect 26 0 33 0;
#X connect 27 0 33 0;
#X connect 28 0 33 0;
#X connect 29 0 33 0;
#X connect 30 0 33 0;
#X connect 31 0 33 0;
#X connect 32 0 33 0;
#X connect 33 0 10 0;
#X connect 34 0 12 2;
#X connect 34 0 12 0;
#X connect 34 0 12 3;
#X connect 34 0 12 1;
#X connect 34 0 12 4;
#X connect 34 0 12 5;
#X connect 34 0 12 6;
#X connect 34 0 12 7;
#X connect 34 0 26 0;
#X connect 34 0 27 0;
#X connect 34 0 28 0;
#X connect 34 0 29 0;
#X connect 34 0 30 0;
#X connect 34 0 31 0;
#X connect 34 0 32 0;
#X connect 34 0 11 0;
#X restore 211 -157 pd get-input-from-arduino;
#X text -269 -137 dsp ON/OFF;
#X floatatom -285 -92 5 0 0 0 - - -;
#X text -286 -76 % cpu;
#X obj -285 -114 dsp;
#X obj -285 -137 tgl 15 0 empty empty empty 8 -8 0 10 -262144 -1 -1
1 1;
#X obj -202 -162 loadbang;
#X obj -285 -160 delay 4000;
#N canvas 0 0 450 300 (subpatch) 0;
#X array array1 100800 float 2;
#X coords 0 1 100800 -1 200 140 1;
#X restore -244 -2 graph;
#X obj 88 45 soundfiler;
#X floatatom 88 74 8 0 0 0 - - -;
#X msg 88 99 0 \, \$1 3000;
#X obj 88 124 line~;
#X obj 23 349 dac~;
#X msg 28 31 bang;
#X floatatom 155 -104 5 0 0 0 - - -;
#X floatatom 234 136 8 0 0 0 - - -;
#X obj 31 311 *~;
#X floatatom 326 0 5 0 0 0 - - -;
#X obj 269 314 tabread4~ array1;
#X msg 88 20 read -resize P5mlrDRUMS.wav array1;
#X obj 319 155 *~ 11025;
#X obj 323 117 phasor~ 4;
#X obj 339 47 * 4;
#X obj 274 247 +~;
#X obj 210 105 *;
#X obj 232 157 pack 0 50;
#X obj 232 182 line~;
#X floatatom 311 -114 5 0 0 0 - - -;
#X floatatom 317 -68 5 0 0 0 - - -;
#X obj 289 -93 * 1000;
#X connect 0 0 15 0;
#X connect 0 0 25 0;
#X connect 0 1 18 0;
#X connect 0 2 17 0;
#X connect 0 2 28 0;
#X connect 0 2 30 0;
#X connect 4 0 2 0;
#X connect 5 0 4 0;
#X connect 6 0 7 0;
#X connect 7 0 5 0;
#X connect 9 0 10 0;
#X connect 10 0 11 0;
#X connect 10 0 25 1;
#X connect 11 0 12 0;
#X connect 14 0 10 0;
#X connect 17 0 13 0;
#X connect 17 0 13 1;
#X connect 18 0 23 0;
#X connect 19 0 17 1;
#X connect 20 0 9 0;
#X connect 21 0 24 0;
#X connect 22 0 21 0;
#X connect 23 0 22 0;
#X connect 24 0 19 0;
#X connect 25 0 16 0;
#X connect 25 0 26 0;
#X connect 26 0 27 0;
#X connect 27 0 24 1;
#X connect 30 0 29 0;
